<svg width="20" height="20" viewBox="0 0 20 20" fill="none" xmlns="http://www.w3.org/2000/svg">
<g clip-path="url(#clip0_1920_21399)">
<path d="M16.3438 8.25977V5.7959C16.3154 5.7959 16.3154 5.7959 16.3154 5.7959C15.6357 5.7959 14.9844 5.59766 14.4463 5.22949C13.6533 4.71973 13.0869 3.89844 12.917 2.96387C12.8604 2.76562 12.8604 2.56738 12.8604 2.36914C12.8604 2.34082 12.8604 2.34082 12.8604 2.3125H10.3682V12.2246C10.3682 13.3857 9.40527 14.3486 8.24414 14.3486C7.08301 14.3486 6.12012 13.3857 6.12012 12.2246C6.12012 11.0635 7.08301 10.1006 8.24414 10.1006C8.4707 10.1006 8.66895 10.1289 8.89551 10.2139V7.66504C8.66895 7.63672 8.4707 7.6084 8.24414 7.6084C5.69531 7.6084 3.65625 9.67578 3.65625 12.2246C3.65625 14.7734 5.69531 16.8125 8.24414 16.8125C10.793 16.8125 12.8604 14.7734 12.8604 12.2246V7.15527C13.8232 7.86328 15.0127 8.25977 16.3154 8.25977H16.3438Z" fill="#010101"/>
</g>
<defs>
<clipPath id="clip0_1920_21399">
<rect width="20" height="20" fill="white"/>
</clipPath>
</defs>
</svg>
