<?xml version="1.0" encoding="utf-8"?>
<!-- Generator: Adobe Illustrator 27.5.0, SVG Export Plug-In . SVG Version: 6.00 Build 0)  -->
<svg version="1.1" id="Layer_1" xmlns="http://www.w3.org/2000/svg" xmlns:xlink="http://www.w3.org/1999/xlink" x="0px" y="0px"
	 viewBox="0 0 238.5 155.2" style="enable-background:new 0 0 238.5 155.2;" xml:space="preserve">
<style type="text/css">
	.st0{fill:#2484C6;}
	.st1{fill:#348C41;}
	.st2{fill:#DA2128;}
</style>
<g>
	<g>
		<polygon class="st0" points="107.6,54.8 140.7,24.7 138.4,22.2 132.1,27.9 129.8,25.3 102.9,49.6 		"/>
		<polygon class="st1" points="86.1,99.7 56.8,126.9 54.4,124.4 57.2,121.8 54.9,119.3 48.6,125.1 46.3,122.6 79.1,92.1 		"/>
		<polygon class="st2" points="77,56.5 65.2,44.2 48.4,26.7 45.9,29.1 43.6,26.6 41.1,29 47,35.2 44.5,37.6 50.6,43.9 48.1,46.3 
			67.1,66.1 		"/>
		<g>
			<path d="M11.2,50.7c2.6,0,4.9,0.4,7,1.3c2.1,0.9,3.9,2.1,5.4,3.6c1.5,1.5,2.6,3.2,3.4,5.1c0.8,1.9,1.2,3.9,1.2,5.9
				c0,2-0.4,3.9-1.2,5.8c-0.8,1.9-1.9,3.6-3.4,5.1c-1.5,1.5-3.3,2.7-5.3,3.6c-2.1,0.9-4.4,1.4-7,1.4H3.1v7.5c0,0.6-0.3,1-1,1H1
				c-0.7,0-1-0.3-1-1V51.7c0-0.6,0.3-0.9,0.8-0.9L1,50.7H11.2z M3.1,79.4h8.1c2.1,0,4-0.4,5.7-1.1c1.7-0.7,3.2-1.7,4.4-2.9
				c1.2-1.2,2.1-2.6,2.8-4.1c0.7-1.5,1-3.1,1-4.7c0-1.6-0.3-3.2-1-4.8c-0.7-1.5-1.6-2.9-2.8-4.1c-1.2-1.2-2.7-2.2-4.4-2.9
				c-1.7-0.7-3.7-1.1-5.9-1.1H3.1V79.4z"/>
			<path d="M188.1,65.8c0,1.3-0.1,2.5-0.4,3.7c-0.3,1.2-0.7,2.4-1.3,3.5c-0.6,1.1-1.3,2.1-2.1,3.1c-0.8,0.9-1.8,1.8-2.8,2.4l4.9,11
				c0,0,0,0.1,0.1,0.2c0,0.1,0,0.2,0,0.3c0,0.2-0.1,0.4-0.2,0.5c-0.1,0.2-0.3,0.2-0.6,0.2h-1.5c-0.3,0-0.6-0.2-0.7-0.6l-4.6-10.3
				c-1.6,0.7-3.4,1-5.5,1h-10.5v8.8c0,0.7-0.3,1-1,1h-1c-0.7,0-1-0.3-1-1v-38c0-0.3,0.1-0.6,0.3-0.8c0.2-0.2,0.4-0.3,0.6-0.3h12.5
				c2.3,0,4.3,0.4,6.1,1.3c1.8,0.8,3.4,2,4.6,3.4c1.3,1.4,2.3,3,2.9,4.9C187.7,62,188.1,63.9,188.1,65.8 M173.4,77.8
				c1.9,0,3.5-0.3,5-1c1.5-0.7,2.7-1.6,3.7-2.7c1-1.1,1.8-2.4,2.3-3.9c0.5-1.4,0.8-2.9,0.8-4.5c0-1.5-0.3-3-0.8-4.5
				c-0.5-1.5-1.3-2.7-2.3-3.9c-1-1.1-2.2-2-3.7-2.7c-1.5-0.7-3.1-1-5-1h-10.5v24.1H173.4z"/>
			<path d="M237.4,50.7c0.3,0,0.6,0.1,0.8,0.2c0.2,0.2,0.3,0.4,0.3,0.7v0.9c0,0.3-0.1,0.6-0.3,0.7c-0.2,0.2-0.4,0.3-0.8,0.3H226
				v36.2c0,0.6-0.3,1-1,1h-1c-0.6,0-1-0.3-1-1V53.6h-11.8c-0.7,0-1-0.3-1-1v-0.9c0-0.6,0.3-1,1-1H237.4z"/>
			<path d="M169.9,107.9c0,3.4-1.9,5.6-5,5.6c-3.1,0-5-2.2-5-5.7c0-3.4,1.9-5.6,5-5.6C168,102.3,169.9,104.5,169.9,107.9
				 M161.3,107.9c0,2.7,1.4,4.4,3.6,4.4c2.2,0,3.6-1.7,3.6-4.5c0-2.6-1.4-4.4-3.6-4.4C162.7,103.5,161.3,105.2,161.3,107.9"/>
			<path d="M173.3,112.8c0,0.4-0.3,0.6-0.7,0.6c-0.4,0-0.7-0.2-0.7-0.6V104c0-1.1,0.4-1.5,1.5-1.5h5.7c0.4,0,0.6,0.3,0.6,0.6
				c0,0.3-0.2,0.6-0.6,0.6h-5.4c-0.3,0-0.4,0.2-0.4,0.4v3h5c0.4,0,0.6,0.3,0.6,0.6c0,0.3-0.2,0.6-0.6,0.6h-5V112.8z"/>
			<path d="M187.5,113.3c-1,0-1.5-0.4-1.5-1.5V104c0-1.1,0.4-1.5,1.5-1.5h3.4c2.1,0,3.3,1,3.3,2.6c0,1.3-0.6,2.1-1.8,2.5
				c1.5,0.3,2.2,1.2,2.2,2.7c0,1.9-1.3,3-3.5,3H187.5z M190.9,107.1c1.2,0,2-0.7,2-1.8c0-1.1-0.7-1.6-2-1.6h-3
				c-0.3,0-0.4,0.2-0.4,0.4v3H190.9z M187.4,111.7c0,0.3,0.1,0.5,0.5,0.5h3c1.5,0,2.2-0.7,2.2-2c0-1.3-0.8-2-2.3-2h-3.5V111.7z"/>
			<path d="M197.1,113c-0.1,0.3-0.3,0.4-0.6,0.4c-0.1,0-0.2,0-0.3,0c-0.3-0.1-0.5-0.3-0.5-0.6c0-0.1,0-0.2,0-0.2l3.9-9.5
				c0.2-0.5,0.5-0.7,1-0.7c0.5,0,0.8,0.2,1,0.7l3.9,9.5c0,0.1,0.1,0.2,0.1,0.2c0,0.3-0.2,0.5-0.5,0.6c-0.1,0-0.2,0-0.3,0
				c-0.3,0-0.5-0.1-0.6-0.4l-1.1-2.9h-5L197.1,113z M202.8,109l-1.6-4.1c-0.2-0.4-0.3-0.8-0.4-1.3c-0.1,0.5-0.3,0.9-0.4,1.3l-1.6,4
				H202.8z"/>
			<path d="M215.6,112.4c0.1,0.1,0.1,0.2,0.1,0.4c0,0.2-0.1,0.4-0.3,0.6c-0.1,0.1-0.3,0.1-0.4,0.1c-0.2,0-0.4-0.1-0.5-0.2l-4.1-5.2
				l-1.6,1.5v3.3c0,0.4-0.3,0.6-0.7,0.6c-0.4,0-0.7-0.2-0.7-0.6V103c0-0.4,0.3-0.6,0.7-0.6c0.4,0,0.7,0.2,0.7,0.6v4.9l5.2-5.3
				c0.1-0.1,0.3-0.2,0.4-0.2c0.2,0,0.3,0.1,0.5,0.2c0.2,0.1,0.2,0.3,0.2,0.5c0,0.1,0,0.3-0.1,0.4l-3.7,3.6L215.6,112.4z"/>
			<path d="M217.4,103c0-0.4,0.3-0.6,0.7-0.6c0.4,0,0.7,0.2,0.7,0.6v6.3c0,2,1,3.1,3,3.1c2,0,3-1,3-3.1V103c0-0.4,0.3-0.6,0.7-0.6
				c0.4,0,0.7,0.2,0.7,0.6v6.4c0,2.8-1.5,4.2-4.4,4.2c-2.8,0-4.4-1.4-4.4-4.2V103z"/>
			<path d="M93.2,25.7c-25.3,0-45.9,20.5-45.9,45.9c0,25.3,20.5,45.9,45.9,45.9c25.3,0,45.9-20.5,45.9-45.9
				C139,46.2,118.5,25.7,93.2,25.7 M93.2,114.5c-23.7,0-43-19.2-43-43c0-23.7,19.2-43,43-43s43,19.2,43,43
				C136.2,95.3,116.9,114.5,93.2,114.5"/>
			<path class="st1" d="M107.2,93.1c-8.7-9.4-18.9-9.5-28.5-0.5l7.3,7.4c4.1-3.8,10.2-3.6,13.8,0.3l3.3,3.6l27,28.4l2.5-2.4
				l23.5,25.3l2.5-2.4l-5.5-6l2.5-2.4l-44.1-46.9L107.2,93.1z"/>
			<path class="st2" d="M76.5,89.5c10.8-10.2,9.2-23.9,0.3-33.1L67,66c-0.9-1,7,6.6-1.3,14.8c0,0-21.5,20.5-21.5,20.5l2.4,2.5
				L37,113l2.4,2.5l-9.4,9l2.4,2.5L45,114.9l2.4,2.5C47.4,117.4,76.5,89.5,76.5,89.5"/>
			<path class="st0" d="M84.6,48.9c7.7,8.3,14.8,3.9,18.7,0.4l4.6,5.2C98.5,63,88.1,63,79.5,53.5l-1.9-2.1L40.7,10.7l2.6-2.3l-5.5-6
				L40.4,0l42.4,46.8L84.6,48.9z"/>
		</g>
	</g>
</g>
</svg>
