<svg width="39" height="27" viewBox="0 0 39 27" fill="none" xmlns="http://www.w3.org/2000/svg">
<path d="M3.375 0.75C2.14453 0.795573 1.11914 1.22852 0.298828 2.04883C-0.521484 2.86914 -0.954427 3.89453 -1 5.125V22.625C-0.954427 23.8555 -0.521484 24.8809 0.298828 25.7012C1.11914 26.5215 2.14453 26.9544 3.375 27H34C35.2305 26.9544 36.2559 26.5215 37.0762 25.7012C37.8965 24.8809 38.3294 23.8555 38.375 22.625V5.125C38.3294 3.89453 37.8965 2.86914 37.0762 2.04883C36.2559 1.22852 35.2305 0.795573 34 0.75H3.375ZM7.75 22.625H3.375V18.25C4.60547 18.2956 5.63086 18.7285 6.45117 19.5488C7.27148 20.3691 7.70443 21.3945 7.75 22.625ZM3.375 9.5V5.125H7.75C7.70443 6.35547 7.27148 7.38086 6.45117 8.20117C5.63086 9.02148 4.60547 9.45443 3.375 9.5ZM29.625 22.625C29.6706 21.3945 30.1035 20.3691 30.9238 19.5488C31.7441 18.7285 32.7695 18.2956 34 18.25V22.625H29.625ZM34 9.5C32.7695 9.45443 31.7441 9.02148 30.9238 8.20117C30.1035 7.38086 29.6706 6.35547 29.625 5.125H34V9.5ZM18.6875 20.4375C16.819 20.3919 15.2695 19.7539 14.0391 18.5234C12.8086 17.293 12.1706 15.7435 12.125 13.875C12.1706 12.0065 12.8086 10.457 14.0391 9.22656C15.2695 7.99609 16.819 7.35807 18.6875 7.3125C20.556 7.35807 22.1055 7.99609 23.3359 9.22656C24.5664 10.457 25.2044 12.0065 25.25 13.875C25.2044 15.7435 24.5664 17.293 23.3359 18.5234C22.1055 19.7539 20.556 20.3919 18.6875 20.4375Z" fill="#2B89B4"/>
</svg>
